<svg xmlns="http://www.w3.org/2000/svg" width="25" height="25" class="icon" viewBox="0 0 1024 1024"><path fill="#7CCDFF" d="M923.136 969.557H193.024V59.904h521.387l208.725 207.701z"/><path fill="#4191FB" d="m912.896 253.952 2.56 671.915a27.897 27.897 0 0 1-27.99 27.989H237.91a27.897 27.897 0 0 1-27.989-27.99V96.94a27.897 27.897 0 0 1 27.99-27.99l493.397-1.024-38.912-39.936h-453.12c-36.352 0-65.707 29.355-65.707 65.707V929.28c0 36.352 29.355 65.707 65.707 65.707H886.1c36.352 0 65.707-29.355 65.707-65.707V293.888z"/><path fill="#C7E2FF" d="M692.395 222.72c0 39.424 31.914 71.339 71.338 71.339H951.98L692.395 27.989z"/><path fill="#4191FB" d="M557.568 482.304H158.72c-50.347 0-91.136-40.79-91.136-91.136v-60.245c0-50.347 40.79-91.136 91.136-91.136h398.848c50.347 0 91.136 40.789 91.136 91.136v60.245c0 50.347-40.79 91.136-91.136 91.136m225.11 197.29h-439.98c-15.7 0-28.33-12.8-28.33-28.33v-5.29c0-15.702 12.8-28.331 28.33-28.331h439.98c15.7 0 28.33 12.8 28.33 28.33v5.291c0 15.53-12.63 28.33-28.33 28.33m0 130.56h-439.98c-15.7 0-28.33-12.8-28.33-28.33v-5.29c0-15.702 12.8-28.331 28.33-28.331h439.98c15.7 0 28.33 12.8 28.33 28.33v5.291c0 15.53-12.63 28.33-28.33 28.33"/><path fill="#FFF" d="M118.784 287.573h69.29c13.654 0 24.747 1.878 33.11 5.803 8.363 3.755 15.36 9.387 20.821 16.384 5.462 7.168 9.558 15.53 11.947 24.917 2.39 9.558 3.755 19.627 3.755 30.208 0 16.726-1.878 29.526-5.462 38.742-3.754 9.216-8.704 16.896-15.36 23.04-6.485 6.144-13.482 10.24-20.992 12.458-10.24 2.902-19.456 4.267-27.818 4.267h-69.291zm46.592 35.328v84.992h11.435c9.728 0 16.725-1.194 20.821-3.413s7.339-6.144 9.728-11.605c2.39-5.632 3.584-14.507 3.584-26.966 0-16.554-2.56-27.818-7.85-33.962-5.291-6.144-13.825-9.216-25.942-9.216zm110.933 42.667c0-25.43 6.827-45.227 20.651-59.392 13.653-14.165 32.939-21.163 57.344-21.163 25.088 0 44.544 6.998 58.027 20.822 13.653 13.994 20.48 33.45 20.48 58.538 0 18.262-2.902 33.11-8.875 44.715s-14.507 20.65-25.77 27.136q-16.897 9.728-41.985 9.728c-17.066 0-31.061-2.73-42.325-8.363q-16.64-8.447-27.136-26.624c-10.496-18.177-10.41-27.306-10.41-45.397m46.763.17c0 15.702 2.901 26.966 8.533 33.963 5.632 6.827 13.312 10.24 23.211 10.24 10.07 0 17.75-3.413 23.21-10.069 5.462-6.656 8.193-18.773 8.193-36.181 0-14.678-2.902-25.43-8.534-32.086-5.802-6.826-13.482-10.069-23.381-10.069-9.387 0-16.896 3.413-22.699 10.24-5.802 6.656-8.533 18.09-8.533 33.963m235.52 13.825 40.96 12.8c-2.73 11.776-6.997 21.674-12.97 29.696-5.974 7.85-13.313 13.994-22.017 17.92-8.704 3.925-19.968 5.973-33.45 5.973-16.384 0-29.867-2.39-40.278-7.339s-19.456-13.653-26.965-25.941c-7.51-12.459-11.264-28.16-11.264-47.616q0-38.655 19.968-59.392c13.312-13.824 32.085-20.821 56.49-20.821 18.945 0 33.963 3.925 44.886 11.946 10.923 7.851 18.944 20.139 24.235 36.523l-41.131 9.387c-1.365-4.779-2.901-8.192-4.608-10.411-2.56-3.755-5.803-6.485-9.557-8.533s-8.022-2.902-12.63-2.902c-10.581 0-18.602 4.438-24.234 13.142-4.267 6.485-6.315 16.725-6.315 30.72 0 17.237 2.56 29.013 7.68 35.498s12.288 9.558 21.504 9.558c8.875 0 15.701-2.56 20.31-7.68 3.925-5.12 7.338-12.63 9.386-22.528"/></svg>