<svg xmlns="http://www.w3.org/2000/svg" width="20" height="20" class="icon" viewBox="0 0 1024 1024"><path fill="#4490FF" d="m993.235 338.632-163.394 163.35c-40.07 40.07-105.072 40.07-145.141 0L521.305 338.589c-40.07-40.07-40.07-105.071 0-145.141L684.7 30.052c40.07-40.07 105.071-40.07 145.14 0l163.395 163.395c40.07 40.07 40.07 105.071 0 145.14zM333.69 1023.288H102.667A102.667 102.667 0 0 1 0 920.62V689.553a102.667 102.667 0 0 1 102.667-102.667h231.068a102.667 102.667 0 0 1 102.667 102.711v231.024a102.667 102.667 0 0 1-102.712 102.667m0-539.07H102.667A102.667 102.667 0 0 1 0 381.551V150.483A102.667 102.667 0 0 1 102.667 47.816h231.068a102.667 102.667 0 0 1 102.667 102.712v231.023A102.667 102.667 0 0 1 333.69 484.218m308.09 102.668h231.024a102.667 102.667 0 0 1 102.667 102.711v231.024a102.667 102.667 0 0 1-102.667 102.667H641.736A102.667 102.667 0 0 1 539.07 920.62V689.553a102.667 102.667 0 0 1 102.667-102.667z"/></svg>